<svg xmlns="http://www.w3.org/2000/svg" viewBox="0 0 191.82 145.28">
  <defs>
    <style>
      .cls-1 {
        fill: #f06e81;
      }

      .cls-2, .cls-5 {
        fill: #6297f0;
      }

      .cls-2, .cls-3 {
        stroke: #fff;
        stroke-linejoin: round;
      }

      .cls-2 {
        stroke-linecap: round;
        stroke-width: 5px;
      }

      .cls-3, .cls-7 {
        fill: none;
      }

      .cls-3 {
        stroke-width: 10px;
      }

      .cls-4 {
        fill: #ffed75;
      }

      .cls-6 {
        fill: #fff;
      }
    </style>
  </defs>
  <title>axoMenu1040</title>
  <g id="N">
    <polygon id="cw" class="cls-1" points="150.65 41.03 95.91 72.63 95.91 9.42 150.65 41.03"/>
    <polygon id="acw" class="cls-1" points="95.91 9.42 95.91 72.63 41.16 41.03 95.91 9.42"/>
    <line id="divider" class="cls-2" x1="95.91" y1="73.64" x2="95.91" y2="10.42"/>
    <path id="bumper" d="M116.23,60.91,99.52,70.56a7.24,7.24,0,0,1-7.23,0L75.58,60.91a7.23,7.23,0,0,1,3.61-13.49h33.43A7.23,7.23,0,0,1,116.23,60.91Z"/>
    <polygon id="bounds" class="cls-3" points="150.65 41.03 95.91 72.64 41.16 41.03 95.91 9.43 150.65 41.03"/>
  </g>
  <g id="SW">
    <polygon id="cw-2" data-name="cw" class="cls-4" points="95.91 72.63 41.16 104.24 41.16 41.03 95.91 72.63"/>
    <polygon id="acw-2" data-name="acw" class="cls-4" points="95.91 72.63 95.91 135.85 41.16 104.24 95.91 72.63"/>
    <line id="divider-2" data-name="divider" class="cls-2" x1="95.91" y1="73.64" x2="41.16" y2="105.24"/>
    <path id="bumper-2" data-name="bumper" d="M82.42,99.73,65.71,70.78a7.22,7.22,0,0,1,9.87-9.87l16.71,9.65a7.2,7.2,0,0,1,3.61,6.25v19.3A7.22,7.22,0,0,1,82.42,99.73Z"/>
    <polygon id="bounds-2" data-name="bounds" class="cls-3" points="95.91 135.85 41.16 104.24 41.16 41.03 95.91 72.64 95.91 135.85"/>
  </g>
  <g id="SE">
    <polygon id="cw-3" data-name="cw" class="cls-5" points="150.65 41.03 150.65 104.24 95.91 72.63 150.65 41.03"/>
    <polygon id="acw-3" data-name="acw" class="cls-5" points="150.65 104.24 95.91 135.85 95.91 72.63 150.65 104.24"/>
    <line id="divider-3" data-name="divider" class="cls-2" x1="95.91" y1="73.64" x2="150.65" y2="105.24"/>
    <path id="bumper-3" data-name="bumper" d="M95.9,96.11V76.81a7.21,7.21,0,0,1,3.62-6.25l16.71-9.65a7.22,7.22,0,0,1,9.87,9.87l-16.71,29A7.23,7.23,0,0,1,95.9,96.11Z"/>
    <polygon id="bounds-3" data-name="bounds" class="cls-3" points="150.65 104.24 95.91 135.85 95.91 72.64 150.65 41.03 150.65 104.24"/>
  </g>
  <g id="center">
    <circle class="cls-6" cx="95.91" cy="72.64" r="17.47"/>
  </g>
  <g id="frame">
    <rect class="cls-7" width="191.82" height="145.28"/>
  </g>
</svg>
