<svg xmlns="http://www.w3.org/2000/svg" viewBox="0 0 192.17 145.28">
  <defs>
    <style>
      .cls-1 {
        fill: #f06e81;
      }

      .cls-2 {
        fill: #c25a68;
      }

      .cls-11, .cls-3, .cls-6, .cls-9 {
        fill: none;
      }

      .cls-3 {
        stroke: #c25a68;
      }

      .cls-3, .cls-6, .cls-9 {
        stroke-linecap: round;
        stroke-linejoin: round;
        stroke-width: 3px;
        stroke-dasharray: 3 6;
      }

      .cls-4 {
        fill: #ffed75;
      }

      .cls-5 {
        fill: #e3b85b;
      }

      .cls-6 {
        stroke: #e3b85b;
      }

      .cls-7 {
        fill: #6297f0;
      }

      .cls-8 {
        fill: #4b75b8;
      }

      .cls-9 {
        stroke: #4b75b8;
      }

      .cls-10 {
        fill: #323232;
      }

      .cls-12 {
        opacity: 0.25;
      }

      .cls-13 {
        fill: #fff;
      }
    </style>
  </defs>
  <title>axoMenu2</title>
  <g id="N">
    <g>
      <g>
        <path class="cls-1" d="M153.53,41.75,103.6,71.32a7,7,0,0,1-3.57,1v-64a7,7,0,0,1,3.57,1l49.93,29.57A1.68,1.68,0,0,1,153.53,41.75Z"/>
        <path class="cls-2" d="M115.09,33a1.06,1.06,0,0,0-1.32,1v7.16a1.06,1.06,0,0,0,.41.84,1,1,0,0,0,.64.22,1.33,1.33,0,0,0,.28,0l17.57-4.68Z"/>
      </g>
      <g>
        <path class="cls-1" d="M100,8.31v64a7,7,0,0,1-3.57-1L46.53,41.75a1.68,1.68,0,0,1,0-2.89L96.46,9.29A7,7,0,0,1,100,8.31Z"/>
        <path class="cls-2" d="M85,33,67.39,37.49,85,42.17l.27,0a1,1,0,0,0,.64-.22,1,1,0,0,0,.42-.84V34A1.06,1.06,0,0,0,85,33Z"/>
      </g>
    </g>
    <line id="divider" class="cls-3" x1="100.03" y1="13.56" x2="100.03" y2="61.43"/>
  </g>
  <g id="SW">
    <g>
      <g>
        <path class="cls-4" d="M43.3,47.36,93.87,75.82a7.06,7.06,0,0,1,2.63,2.6l-55.41,32a7,7,0,0,1-.94-3.58l.64-58A1.68,1.68,0,0,1,43.3,47.36Z"/>
        <path class="cls-5" d="M50,67.56,54.9,85.05a1.07,1.07,0,0,0,.62.69,1,1,0,0,0,.4.08,1.1,1.1,0,0,0,.53-.14l6.2-3.58a1,1,0,0,0,.52-.78,1,1,0,0,0-.3-.88Z"/>
      </g>
      <g>
        <path class="cls-4" d="M41.09,110.41l55.41-32A7,7,0,0,1,97.44,82l-.64,58a1.68,1.68,0,0,1-2.51,1.44L43.72,113A7,7,0,0,1,41.09,110.41Z"/>
        <path class="cls-5" d="M77.94,106.54a1,1,0,0,0-.61-.7,1,1,0,0,0-.94.06l-6.2,3.58a1,1,0,0,0-.52.77,1,1,0,0,0,.29.88l12.72,13Z"/>
      </g>
    </g>
    <line id="divider-2" data-name="divider" class="cls-6" x1="45.63" y1="107.79" x2="87.09" y2="83.85"/>
  </g>
  <g id="SE">
    <g>
      <g>
        <path class="cls-7" d="M103.27,140l-.64-58a7,7,0,0,1,.94-3.57l55.41,32a7.06,7.06,0,0,1-2.63,2.6l-50.57,28.45A1.68,1.68,0,0,1,103.27,140Z"/>
        <path class="cls-8" d="M129.88,109.47l-6.2-3.58a1,1,0,0,0-.94-.06,1,1,0,0,0-.61.7l-4.74,17.55,12.72-13a1.08,1.08,0,0,0,.29-.89A1,1,0,0,0,129.88,109.47Z"/>
      </g>
      <g>
        <path class="cls-7" d="M159,110.41l-55.41-32a7,7,0,0,1,2.63-2.61l50.57-28.46a1.69,1.69,0,0,1,2.51,1.45l.64,58A7.08,7.08,0,0,1,159,110.41Z"/>
        <path class="cls-8" d="M137.2,80.43a1,1,0,0,0-.3.88,1,1,0,0,0,.52.78l6.2,3.58a1,1,0,0,0,.53.14,1,1,0,0,0,.4-.08,1.07,1.07,0,0,0,.62-.69L150,67.55Z"/>
      </g>
    </g>
    <line id="divider-3" data-name="divider" class="cls-9" x1="154.44" y1="107.78" x2="112.98" y2="83.84"/>
  </g>
  <g id="center">
    <path id="center-2" data-name="center" class="cls-10" d="M100,57.26A19.12,19.12,0,1,1,80.92,76.38,19.11,19.11,0,0,1,100,57.26"/>
    <rect class="cls-10" x="80.92" y="57.26" width="38.22" height="38.22" rx="19.11" ry="19.11"/>
  </g>
  <g id="frame">
    <rect class="cls-11" width="191.82" height="145.28"/>
  </g>
  <g id="anno">
    <g>
      <g class="cls-12">
        <rect x="7.83" y="119.38" width="28.18" height="22.28" rx="3" ry="3"/>
        <g>
          <path class="cls-13" d="M18.59,135.77a1.73,1.73,0,0,1,.92.63,1.76,1.76,0,0,1,.28,1,2.07,2.07,0,0,1-.17.84,1.85,1.85,0,0,1-.5.64,2.26,2.26,0,0,1-.77.41,3,3,0,0,1-1,.15,3.12,3.12,0,0,1-1-.15,2.31,2.31,0,0,1-.76-.41,1.74,1.74,0,0,1-.5-.64,1.91,1.91,0,0,1-.17-.84,1.76,1.76,0,0,1,.28-1,1.74,1.74,0,0,1,.91-.63,1.57,1.57,0,0,1-.73-.6,1.7,1.7,0,0,1-.24-.92,1.68,1.68,0,0,1,.17-.74,1.61,1.61,0,0,1,.45-.59,2.08,2.08,0,0,1,.7-.39,2.5,2.5,0,0,1,.88-.15,2.56,2.56,0,0,1,.89.15,2.08,2.08,0,0,1,.7.39,1.85,1.85,0,0,1,.45.59,1.67,1.67,0,0,1,.16.74,1.7,1.7,0,0,1-.24.92A1.52,1.52,0,0,1,18.59,135.77Zm-1.23,2.67a1.21,1.21,0,0,0,.48-.08,1,1,0,0,0,.33-.22.86.86,0,0,0,.2-.33,1.34,1.34,0,0,0-.19-1.22,1.07,1.07,0,0,0-.82-.28,1.06,1.06,0,0,0-.81.28,1.17,1.17,0,0,0-.26.8,1.42,1.42,0,0,0,.06.42,1,1,0,0,0,.2.33.91.91,0,0,0,.34.22A1.13,1.13,0,0,0,17.36,138.44Zm0-5.08a1,1,0,0,0-.41.07.88.88,0,0,0-.29.2.87.87,0,0,0-.16.3,1,1,0,0,0-.06.35,1.5,1.5,0,0,0,0,.37,1.1,1.1,0,0,0,.14.33.82.82,0,0,0,.29.23.94.94,0,0,0,.44.08,1,1,0,0,0,.45-.08.71.71,0,0,0,.28-.23.91.91,0,0,0,.15-.33,1.5,1.5,0,0,0,0-.37,1,1,0,0,0-.05-.35.87.87,0,0,0-.16-.3.88.88,0,0,0-.29-.2A1.06,1.06,0,0,0,17.36,133.36Z"/>
          <path class="cls-13" d="M24.79,138.17a.49.49,0,0,1,.33.11.44.44,0,0,1,.12.32v.77H20.45v-.43a.74.74,0,0,1,.06-.27.69.69,0,0,1,.17-.26l2.05-2c.17-.18.33-.35.46-.51a2.44,2.44,0,0,0,.54-.94,2,2,0,0,0,.06-.5,1,1,0,0,0-.24-.7.9.9,0,0,0-.67-.24,1,1,0,0,0-.35.06.92.92,0,0,0-.28.14,1,1,0,0,0-.22.23.72.72,0,0,0-.13.28.63.63,0,0,1-.23.32.7.7,0,0,1-.42,0l-.69-.12a2.66,2.66,0,0,1,.28-.89,2.17,2.17,0,0,1,.53-.63,2.07,2.07,0,0,1,.72-.38,3,3,0,0,1,.87-.13,2.52,2.52,0,0,1,.89.15,2.12,2.12,0,0,1,.69.4,1.84,1.84,0,0,1,.44.63,2,2,0,0,1,.16.81,2.35,2.35,0,0,1-.11.71,2.47,2.47,0,0,1-.3.61,3.87,3.87,0,0,1-.43.57c-.17.18-.34.37-.53.56l-1.46,1.5a2.77,2.77,0,0,1,.48-.11,2.32,2.32,0,0,1,.44,0Z"/>
        </g>
        <g>
          <path class="cls-13" d="M14,127.49v1H10.16v-1h1.38v-4c0-.09,0-.17,0-.26l-.9.75a.41.41,0,0,1-.19.09h-.17l-.14-.05-.1-.09-.41-.55,2.12-1.8h1.08v5.94Z"/>
          <path class="cls-13" d="M18.59,124.86a1.73,1.73,0,0,1,.92.63,1.76,1.76,0,0,1,.28,1,2.07,2.07,0,0,1-.17.84,1.85,1.85,0,0,1-.5.64,2.26,2.26,0,0,1-.77.41,3.07,3.07,0,0,1-1,.15,3.12,3.12,0,0,1-1-.15,2.22,2.22,0,0,1-.76-.41,1.74,1.74,0,0,1-.5-.64,1.92,1.92,0,0,1-.18-.84,1.77,1.77,0,0,1,.29-1,1.74,1.74,0,0,1,.91-.63,1.57,1.57,0,0,1-.73-.6,1.7,1.7,0,0,1-.24-.92,1.68,1.68,0,0,1,.17-.74,1.61,1.61,0,0,1,.45-.59,2,2,0,0,1,.7-.39,2.5,2.5,0,0,1,.88-.15,2.56,2.56,0,0,1,.89.15,2.08,2.08,0,0,1,.7.39,1.85,1.85,0,0,1,.45.59,1.67,1.67,0,0,1,.16.74,1.7,1.7,0,0,1-.24.92A1.52,1.52,0,0,1,18.59,124.86Zm-1.23,2.67a1.42,1.42,0,0,0,.48-.08,1,1,0,0,0,.33-.22.86.86,0,0,0,.2-.33,1.16,1.16,0,0,0,.07-.42,1.12,1.12,0,0,0-.27-.8,1,1,0,0,0-.81-.28,1.06,1.06,0,0,0-.81.28,1.17,1.17,0,0,0-.26.8,1.42,1.42,0,0,0,.06.42,1,1,0,0,0,.2.33.91.91,0,0,0,.34.22A1.32,1.32,0,0,0,17.36,127.53Zm0-5.08a1,1,0,0,0-.41.07.88.88,0,0,0-.29.2.87.87,0,0,0-.16.3,1,1,0,0,0-.06.35,1.5,1.5,0,0,0,0,.37.89.89,0,0,0,.14.33.74.74,0,0,0,.29.23.94.94,0,0,0,.44.08,1,1,0,0,0,.45-.08.71.71,0,0,0,.28-.23.91.91,0,0,0,.15-.33,1.5,1.5,0,0,0,0-.37,1.29,1.29,0,0,0-.05-.35.87.87,0,0,0-.16-.3.88.88,0,0,0-.29-.2A1.06,1.06,0,0,0,17.36,122.45Z"/>
          <path class="cls-13" d="M25.43,125a5.58,5.58,0,0,1-.19,1.57,3.19,3.19,0,0,1-.54,1.11,2.15,2.15,0,0,1-.81.64,2.43,2.43,0,0,1-2,0,2.15,2.15,0,0,1-.81-.64,3.37,3.37,0,0,1-.53-1.11,5.58,5.58,0,0,1-.19-1.57,5.67,5.67,0,0,1,.19-1.57,3.42,3.42,0,0,1,.53-1.1,2.15,2.15,0,0,1,.81-.64,2.43,2.43,0,0,1,2,0,2.15,2.15,0,0,1,.81.64,3.23,3.23,0,0,1,.54,1.1A5.67,5.67,0,0,1,25.43,125Zm-1.35,0a6.6,6.6,0,0,0-.1-1.21,2.7,2.7,0,0,0-.27-.75,1,1,0,0,0-.39-.38.94.94,0,0,0-.88,0,1,1,0,0,0-.38.38,2.42,2.42,0,0,0-.26.75,7.43,7.43,0,0,0,0,2.43,2.33,2.33,0,0,0,.26.75,1.09,1.09,0,0,0,.38.39,1,1,0,0,0,.88,0,1.12,1.12,0,0,0,.39-.39,2.58,2.58,0,0,0,.27-.75A6.64,6.64,0,0,0,24.08,125Z"/>
        </g>
        <path class="cls-13" d="M30.61,134.13a1.75,1.75,0,0,1-.14.7,1.53,1.53,0,0,1-.35.54,1.69,1.69,0,0,1-.53.35,1.58,1.58,0,0,1-.61.12,1.71,1.71,0,0,1-.65-.12,1.41,1.41,0,0,1-.51-.35,1.66,1.66,0,0,1-.34-.54,1.94,1.94,0,0,1-.12-.7,2.09,2.09,0,0,1,.12-.72,1.7,1.7,0,0,1,.34-.55,1.54,1.54,0,0,1,.51-.35,1.71,1.71,0,0,1,.65-.12,1.75,1.75,0,0,1,.65.12,1.51,1.51,0,0,1,.86.9A2.09,2.09,0,0,1,30.61,134.13Zm2.24-1.47a.56.56,0,0,1,.16-.14.45.45,0,0,1,.26-.06h.95l-5.16,6.72a.79.79,0,0,1-.17.14.52.52,0,0,1-.23.05h-1Zm-3.25,1.47a1.75,1.75,0,0,0-.05-.43.66.66,0,0,0-.13-.28.48.48,0,0,0-.2-.15.64.64,0,0,0-.24,0,.61.61,0,0,0-.24,0,.4.4,0,0,0-.19.15.81.81,0,0,0-.13.28,1.8,1.8,0,0,0,0,.43,1.66,1.66,0,0,0,0,.42.85.85,0,0,0,.13.27.4.4,0,0,0,.19.15.86.86,0,0,0,.24,0,.93.93,0,0,0,.24,0,.48.48,0,0,0,.2-.15.68.68,0,0,0,.13-.27A1.61,1.61,0,0,0,29.6,134.13Zm4.94,3.62a1.78,1.78,0,0,1-.13.7,1.7,1.7,0,0,1-.36.54,1.61,1.61,0,0,1-.52.34,1.47,1.47,0,0,1-.62.13,1.5,1.5,0,0,1-.64-.13,1.51,1.51,0,0,1-.52-.34,1.63,1.63,0,0,1-.33-.54,1.78,1.78,0,0,1-.13-.7,1.81,1.81,0,0,1,.13-.72,1.58,1.58,0,0,1,.33-.55,1.54,1.54,0,0,1,.52-.35,1.66,1.66,0,0,1,.64-.12,1.71,1.71,0,0,1,.65.12,1.37,1.37,0,0,1,.52.35,1.46,1.46,0,0,1,.34.55A2,2,0,0,1,34.54,137.75Zm-1,0a1.34,1.34,0,0,0-.05-.43.66.66,0,0,0-.13-.28.45.45,0,0,0-.19-.15.7.7,0,0,0-.25,0,.69.69,0,0,0-.24,0,.45.45,0,0,0-.19.15.81.81,0,0,0-.12.28,1.69,1.69,0,0,0,0,.43,1.67,1.67,0,0,0,0,.42.7.7,0,0,0,.12.26.45.45,0,0,0,.19.15.67.67,0,0,0,.24,0,.69.69,0,0,0,.25,0,.45.45,0,0,0,.19-.15.58.58,0,0,0,.13-.26A1.31,1.31,0,0,0,33.53,137.75Z"/>
        <path class="cls-13" d="M28.93,121.46a2.2,2.2,0,0,1,.64.1,1.36,1.36,0,0,1,.5.31,1.33,1.33,0,0,1,.33.47,1.81,1.81,0,0,1,.11.63,1.88,1.88,0,0,1-.11.65,1.37,1.37,0,0,1-.33.48,1.69,1.69,0,0,1-.5.31,1.91,1.91,0,0,1-.64.1,2,2,0,0,1-.66-.1,1.69,1.69,0,0,1-.5-.31,1.37,1.37,0,0,1-.33-.48,1.67,1.67,0,0,1-.12-.65,1.61,1.61,0,0,1,.12-.63,1.33,1.33,0,0,1,.33-.47,1.36,1.36,0,0,1,.5-.31A2.28,2.28,0,0,1,28.93,121.46Zm0,2.3a.47.47,0,0,0,.42-.19,1.4,1.4,0,0,0,0-1.18.49.49,0,0,0-.42-.18.54.54,0,0,0-.45.18,1.4,1.4,0,0,0,0,1.18A.52.52,0,0,0,28.93,123.76Z"/>
      </g>
      <g class="cls-12">
        <rect x="163.99" y="13.25" width="28.18" height="22.28" rx="3" ry="3"/>
        <g>
          <path class="cls-13" d="M174.75,29.63a1.7,1.7,0,0,1,.91.63,1.78,1.78,0,0,1,.29,1,1.9,1.9,0,0,1-.18.83,1.74,1.74,0,0,1-.5.64,2.06,2.06,0,0,1-.76.41,3.34,3.34,0,0,1-2,0,2.1,2.1,0,0,1-.77-.41,1.72,1.72,0,0,1-.49-.64,1.9,1.9,0,0,1-.18-.83,1.61,1.61,0,0,1,1.2-1.65,1.52,1.52,0,0,1-.73-.6,1.68,1.68,0,0,1-.24-.92,1.7,1.7,0,0,1,.16-.74,2,2,0,0,1,.45-.59,2.49,2.49,0,0,1,.7-.39,2.81,2.81,0,0,1,.89-.14,2.75,2.75,0,0,1,.88.14,2.36,2.36,0,0,1,.7.39,1.69,1.69,0,0,1,.62,1.33,1.68,1.68,0,0,1-.24.92A1.57,1.57,0,0,1,174.75,29.63Zm-1.23,2.67a1.13,1.13,0,0,0,.47-.08.8.8,0,0,0,.34-.22.91.91,0,0,0,.2-.33,1.42,1.42,0,0,0,.06-.42,1.12,1.12,0,0,0-.26-.8,1.1,1.1,0,0,0-.81-.28,1.07,1.07,0,0,0-.81.28,1.12,1.12,0,0,0-.27.8,1.16,1.16,0,0,0,.07.42.79.79,0,0,0,.2.33.83.83,0,0,0,.33.22A1.21,1.21,0,0,0,173.52,32.3Zm0-5.08a.93.93,0,0,0-.42.08.72.72,0,0,0-.28.2.77.77,0,0,0-.17.29,1.34,1.34,0,0,0-.05.35,1.64,1.64,0,0,0,0,.38.86.86,0,0,0,.15.32.71.71,0,0,0,.28.23,1.17,1.17,0,0,0,.9,0,.79.79,0,0,0,.28-.23.71.71,0,0,0,.14-.32,1.65,1.65,0,0,0,.05-.38,1,1,0,0,0-.06-.35.75.75,0,0,0-.16-.29.69.69,0,0,0-.29-.2A.86.86,0,0,0,173.52,27.22Z"/>
          <path class="cls-13" d="M180.94,32a.47.47,0,0,1,.34.12.41.41,0,0,1,.12.31v.77h-4.79V32.8a.85.85,0,0,1,0-.26.68.68,0,0,1,.18-.27l2-2.05c.18-.18.33-.34.47-.5a3.43,3.43,0,0,0,.33-.48,1.86,1.86,0,0,0,.27-1,1,1,0,0,0-.24-.71.9.9,0,0,0-.67-.24,1,1,0,0,0-.35.06.73.73,0,0,0-.29.15,1.15,1.15,0,0,0-.22.22,1,1,0,0,0-.13.28.55.55,0,0,1-.23.32.73.73,0,0,1-.41,0l-.7-.13a2.61,2.61,0,0,1,.29-.88,2.06,2.06,0,0,1,.52-.64,2.26,2.26,0,0,1,.72-.38,3,3,0,0,1,.87-.12,2.83,2.83,0,0,1,.9.14,2,2,0,0,1,.68.41,1.87,1.87,0,0,1,.45.62,2.16,2.16,0,0,1,.15.81,2,2,0,0,1-.11.71,2.84,2.84,0,0,1-.29.61,4,4,0,0,1-.44.57c-.16.19-.34.37-.52.56l-1.47,1.5a4.15,4.15,0,0,1,.48-.11,2.42,2.42,0,0,1,.45,0Z"/>
        </g>
        <g>
          <path class="cls-13" d="M173.34,17.89l-.21.26a1.63,1.63,0,0,1,.39-.13,2.15,2.15,0,0,1,.45,0,2.11,2.11,0,0,1,.75.13,1.77,1.77,0,0,1,1.11,1,2.14,2.14,0,0,1,.18.91,2.34,2.34,0,0,1-.18.91,2.17,2.17,0,0,1-.51.75,2.23,2.23,0,0,1-.78.5,2.53,2.53,0,0,1-1,.19,2.67,2.67,0,0,1-1-.18,2.24,2.24,0,0,1-.76-.5,2.4,2.4,0,0,1-.49-.78,2.86,2.86,0,0,1-.16-1,2.63,2.63,0,0,1,.2-1,4.24,4.24,0,0,1,.6-1.06l1.6-2.16a.78.78,0,0,1,.28-.22,1,1,0,0,1,.43-.09h1.16Zm.17,3.45a1.19,1.19,0,0,0,.47-.09,1,1,0,0,0,.38-.25,1.2,1.2,0,0,0,.34-.85,1.36,1.36,0,0,0-.09-.51,1.07,1.07,0,0,0-.24-.38A1,1,0,0,0,174,19a1.21,1.21,0,0,0-.48-.08,1.34,1.34,0,0,0-.46.08,1.16,1.16,0,0,0-.36.25,1.23,1.23,0,0,0-.24.38,1.51,1.51,0,0,0-.08.48,1.49,1.49,0,0,0,.07.49,1,1,0,0,0,.22.38.9.9,0,0,0,.35.25A1.5,1.5,0,0,0,173.51,21.34Z"/>
          <path class="cls-13" d="M181.59,18.87a5.65,5.65,0,0,1-.2,1.57,3.42,3.42,0,0,1-.53,1.1,2.23,2.23,0,0,1-.82.65,2.53,2.53,0,0,1-2,0,2.17,2.17,0,0,1-.8-.65,3,3,0,0,1-.53-1.1,5.65,5.65,0,0,1-.2-1.57,5.55,5.55,0,0,1,.2-1.57,3,3,0,0,1,.53-1.1,2.08,2.08,0,0,1,.8-.65,2.53,2.53,0,0,1,2,0,2.14,2.14,0,0,1,.82.65,3.32,3.32,0,0,1,.53,1.1A5.55,5.55,0,0,1,181.59,18.87Zm-1.36,0a5.76,5.76,0,0,0-.1-1.21,2.66,2.66,0,0,0-.27-.76,1,1,0,0,0-.38-.38.93.93,0,0,0-.45-.11.87.87,0,0,0-.44.11,1,1,0,0,0-.38.38,3,3,0,0,0-.26.76,5.76,5.76,0,0,0-.1,1.21,5.82,5.82,0,0,0,.1,1.21,2.81,2.81,0,0,0,.26.75,1,1,0,0,0,.38.39,1,1,0,0,0,.44.11,1.06,1.06,0,0,0,.45-.11,1,1,0,0,0,.38-.39,2.48,2.48,0,0,0,.27-.75A5.82,5.82,0,0,0,180.23,18.87Z"/>
        </g>
        <path class="cls-13" d="M186.76,28a1.71,1.71,0,0,1-.13.7,1.87,1.87,0,0,1-.36.55,1.63,1.63,0,0,1-1.14.46,1.66,1.66,0,0,1-.64-.12,1.51,1.51,0,0,1-.52-.34,1.79,1.79,0,0,1-.33-.55,1.71,1.71,0,0,1-.13-.7,1.88,1.88,0,0,1,.13-.72,1.63,1.63,0,0,1,.33-.54,1.41,1.41,0,0,1,.52-.35,1.5,1.5,0,0,1,.64-.13,1.59,1.59,0,0,1,.66.13,1.3,1.3,0,0,1,.51.35,1.5,1.5,0,0,1,.34.54A2.09,2.09,0,0,1,186.76,28ZM189,26.52a.7.7,0,0,1,.16-.13.4.4,0,0,1,.26-.07h1L185.21,33a.54.54,0,0,1-.16.14.57.57,0,0,1-.24,0h-1ZM185.75,28a1.37,1.37,0,0,0-.05-.43.62.62,0,0,0-.13-.27.45.45,0,0,0-.19-.15.53.53,0,0,0-.25-.05.52.52,0,0,0-.24.05.45.45,0,0,0-.19.15.75.75,0,0,0-.12.27,1.75,1.75,0,0,0-.05.43,1.61,1.61,0,0,0,.05.42.85.85,0,0,0,.12.27.45.45,0,0,0,.19.15.67.67,0,0,0,.24,0,.69.69,0,0,0,.25,0,.45.45,0,0,0,.19-.15.68.68,0,0,0,.13-.27A1.27,1.27,0,0,0,185.75,28Zm4.94,3.62a1.75,1.75,0,0,1-.13.7,1.7,1.7,0,0,1-.36.54,1.54,1.54,0,0,1-.52.35,1.62,1.62,0,0,1-.61.12,1.71,1.71,0,0,1-.65-.12,1.41,1.41,0,0,1-.51-.35,1.5,1.5,0,0,1-.34-.54,1.94,1.94,0,0,1-.12-.7,2,2,0,0,1,.12-.72,1.46,1.46,0,0,1,.34-.55,1.41,1.41,0,0,1,.51-.35,1.71,1.71,0,0,1,.65-.12,1.75,1.75,0,0,1,.65.12,1.54,1.54,0,0,1,.52.35,1.58,1.58,0,0,1,.33.55A2,2,0,0,1,190.69,31.61Zm-1,0a1.69,1.69,0,0,0-.05-.43.81.81,0,0,0-.13-.28.48.48,0,0,0-.2-.15.69.69,0,0,0-.24-.05.6.6,0,0,0-.24.05.4.4,0,0,0-.19.15.66.66,0,0,0-.13.28,1.74,1.74,0,0,0,0,.43,1.66,1.66,0,0,0,0,.42.68.68,0,0,0,.13.27.38.38,0,0,0,.19.14.61.61,0,0,0,.24,0,.67.67,0,0,0,.24,0,.46.46,0,0,0,.2-.14.85.85,0,0,0,.13-.27A1.61,1.61,0,0,0,189.69,31.61Z"/>
        <path class="cls-13" d="M185.08,15.32a1.87,1.87,0,0,1,.64.11,1.39,1.39,0,0,1,.5.3,1.43,1.43,0,0,1,.33.47,1.77,1.77,0,0,1,0,1.28,1.37,1.37,0,0,1-.33.48,1.41,1.41,0,0,1-.5.31,1.87,1.87,0,0,1-.64.11,1.93,1.93,0,0,1-.65-.11,1.45,1.45,0,0,1-.51-.31,1.37,1.37,0,0,1-.33-.48,1.92,1.92,0,0,1,0-1.28,1.38,1.38,0,0,1,.84-.77A1.93,1.93,0,0,1,185.08,15.32Zm0,2.3a.49.49,0,0,0,.42-.18,1,1,0,0,0,.14-.59,1,1,0,0,0-.14-.59.47.47,0,0,0-.42-.18.49.49,0,0,0-.44.18,1,1,0,0,0-.14.59,1,1,0,0,0,.14.59A.52.52,0,0,0,185.08,17.62Z"/>
      </g>
      <g class="cls-12">
        <rect x="7.83" y="13.25" width="28.18" height="22.28" rx="3" ry="3"/>
        <g>
          <path class="cls-13" d="M18.59,29.63a1.73,1.73,0,0,1,.92.63,1.77,1.77,0,0,1,.28,1,2.05,2.05,0,0,1-.17.83,1.85,1.85,0,0,1-.5.64,2.1,2.1,0,0,1-.77.41,3,3,0,0,1-1,.15,3.12,3.12,0,0,1-1-.15,2.14,2.14,0,0,1-.76-.41,1.74,1.74,0,0,1-.5-.64,1.9,1.9,0,0,1-.17-.83,1.77,1.77,0,0,1,.28-1,1.74,1.74,0,0,1,.91-.63,1.57,1.57,0,0,1-.73-.6,1.68,1.68,0,0,1-.24-.92,1.71,1.71,0,0,1,.17-.74,1.69,1.69,0,0,1,.45-.59,2.49,2.49,0,0,1,.7-.39,2.75,2.75,0,0,1,.88-.14,2.81,2.81,0,0,1,.89.14,2.49,2.49,0,0,1,.7.39,2,2,0,0,1,.45.59,1.7,1.7,0,0,1,.16.74,1.68,1.68,0,0,1-.24.92A1.52,1.52,0,0,1,18.59,29.63ZM17.36,32.3a1.21,1.21,0,0,0,.48-.08.83.83,0,0,0,.33-.22.79.79,0,0,0,.2-.33,1.34,1.34,0,0,0-.19-1.22,1.33,1.33,0,0,0-1.63,0,1.17,1.17,0,0,0-.26.8,1.42,1.42,0,0,0,.06.42.91.91,0,0,0,.2.33.8.8,0,0,0,.34.22A1.13,1.13,0,0,0,17.36,32.3Zm0-5.08a.86.86,0,0,0-.41.08.74.74,0,0,0-.45.49,1,1,0,0,0-.06.35,1.65,1.65,0,0,0,0,.38,1,1,0,0,0,.14.32.82.82,0,0,0,.29.23.93.93,0,0,0,.44.09,1,1,0,0,0,.45-.09.71.71,0,0,0,.28-.23.86.86,0,0,0,.15-.32,1.64,1.64,0,0,0,0-.38,1,1,0,0,0-.05-.35.74.74,0,0,0-.45-.49A.9.9,0,0,0,17.36,27.22Z"/>
          <path class="cls-13" d="M24.79,32a.45.45,0,0,1,.33.12.41.41,0,0,1,.12.31v.77H20.45V32.8a.88.88,0,0,1,.23-.53l2.05-2.05c.17-.18.33-.34.46-.5a2.83,2.83,0,0,0,.34-.48,2.67,2.67,0,0,0,.2-.46,2.07,2.07,0,0,0,.06-.5,1,1,0,0,0-.24-.71.9.9,0,0,0-.67-.24,1,1,0,0,0-.35.06.76.76,0,0,0-.28.15.92.92,0,0,0-.22.22.79.79,0,0,0-.13.28.59.59,0,0,1-.23.32.77.77,0,0,1-.42,0l-.69-.13a2.6,2.6,0,0,1,.28-.88,2.09,2.09,0,0,1,.53-.64,2.26,2.26,0,0,1,.72-.38,3,3,0,0,1,.87-.12,2.77,2.77,0,0,1,.89.14,2,2,0,0,1,.69.41,1.71,1.71,0,0,1,.44.62,2,2,0,0,1,.16.81,2.3,2.3,0,0,1-.11.71,2.47,2.47,0,0,1-.3.61,3.87,3.87,0,0,1-.43.57c-.17.19-.34.37-.53.56l-1.46,1.5a4.15,4.15,0,0,1,.48-.11,2.32,2.32,0,0,1,.44,0Z"/>
        </g>
        <g>
          <path class="cls-13" d="M9.55,17.36a2.91,2.91,0,0,1,.28-.89,2.17,2.17,0,0,1,.53-.63,2.26,2.26,0,0,1,.72-.38,2.93,2.93,0,0,1,.86-.12,2.48,2.48,0,0,1,.89.14,2,2,0,0,1,.67.38,1.54,1.54,0,0,1,.41.57,1.62,1.62,0,0,1,.15.69,2,2,0,0,1-.07.58,1.48,1.48,0,0,1-.2.44,1.43,1.43,0,0,1-.34.31,1.88,1.88,0,0,1-.45.22,1.54,1.54,0,0,1,1.19,1.58,2.12,2.12,0,0,1-.2.93,2.06,2.06,0,0,1-.52.68,2.26,2.26,0,0,1-.77.4,3.18,3.18,0,0,1-1.8,0,2,2,0,0,1-.68-.34,2.14,2.14,0,0,1-.5-.57,4.37,4.37,0,0,1-.37-.81l.58-.24a.74.74,0,0,1,.43-.05.39.39,0,0,1,.28.21q.11.18.21.33a1.55,1.55,0,0,0,.24.27,1.11,1.11,0,0,0,.3.17,1.14,1.14,0,0,0,.39.06,1.21,1.21,0,0,0,.48-.09A1.07,1.07,0,0,0,12.6,21a1.15,1.15,0,0,0,.21-.33,1.21,1.21,0,0,0,.07-.37,1.88,1.88,0,0,0-.05-.43.59.59,0,0,0-.19-.33,1,1,0,0,0-.46-.2,3.47,3.47,0,0,0-.82-.08v-.92a3.39,3.39,0,0,0,.71-.07,1.23,1.23,0,0,0,.43-.2.66.66,0,0,0,.22-.31,1.29,1.29,0,0,0,.06-.4.93.93,0,0,0-.24-.69.9.9,0,0,0-.67-.24,1,1,0,0,0-.35.06.76.76,0,0,0-.28.15.92.92,0,0,0-.22.22,1,1,0,0,0-.13.28.56.56,0,0,1-.24.32.65.65,0,0,1-.41,0Z"/>
          <path class="cls-13" d="M19.91,18.87a5.67,5.67,0,0,1-.19,1.57,3.42,3.42,0,0,1-.54,1.1,2.29,2.29,0,0,1-.81.65,2.56,2.56,0,0,1-2,0,2.17,2.17,0,0,1-.8-.65,3.22,3.22,0,0,1-.53-1.1,5.67,5.67,0,0,1-.19-1.57A5.58,5.58,0,0,1,15,17.3a3.13,3.13,0,0,1,.53-1.1,2.08,2.08,0,0,1,.8-.65,2.56,2.56,0,0,1,2,0,2.18,2.18,0,0,1,.81.65,3.32,3.32,0,0,1,.54,1.1A5.58,5.58,0,0,1,19.91,18.87Zm-1.36,0a5.76,5.76,0,0,0-.1-1.21,2.66,2.66,0,0,0-.27-.76,1,1,0,0,0-.38-.38.91.91,0,0,0-.45-.11.87.87,0,0,0-.44.11,1,1,0,0,0-.37.38,2.66,2.66,0,0,0-.27.76,6.52,6.52,0,0,0-.1,1.21,6.6,6.6,0,0,0,.1,1.21,2.48,2.48,0,0,0,.27.75,1,1,0,0,0,.37.39,1,1,0,0,0,.44.11,1,1,0,0,0,.45-.11,1,1,0,0,0,.38-.39,2.48,2.48,0,0,0,.27-.75A5.82,5.82,0,0,0,18.55,18.87Z"/>
          <path class="cls-13" d="M25.43,18.87a5.67,5.67,0,0,1-.19,1.57,3.23,3.23,0,0,1-.54,1.1,2.29,2.29,0,0,1-.81.65,2.53,2.53,0,0,1-2,0,2.29,2.29,0,0,1-.81-.65,3.42,3.42,0,0,1-.53-1.1,5.67,5.67,0,0,1-.19-1.57,5.58,5.58,0,0,1,.19-1.57,3.32,3.32,0,0,1,.53-1.1,2.18,2.18,0,0,1,.81-.65,2.53,2.53,0,0,1,2,0,2.18,2.18,0,0,1,.81.65,3.14,3.14,0,0,1,.54,1.1A5.58,5.58,0,0,1,25.43,18.87Zm-1.35,0a6.52,6.52,0,0,0-.1-1.21,2.66,2.66,0,0,0-.27-.76,1,1,0,0,0-.39-.38.94.94,0,0,0-.88,0,1,1,0,0,0-.38.38,2.4,2.4,0,0,0-.26.76,5.76,5.76,0,0,0-.1,1.21,5.82,5.82,0,0,0,.1,1.21,2.25,2.25,0,0,0,.26.75,1,1,0,0,0,.38.39.94.94,0,0,0,.88,0,1,1,0,0,0,.39-.39,2.48,2.48,0,0,0,.27-.75A6.6,6.6,0,0,0,24.08,18.87Z"/>
        </g>
        <path class="cls-13" d="M30.61,28a1.71,1.71,0,0,1-.14.7,1.49,1.49,0,0,1-.88.89,1.58,1.58,0,0,1-.61.12,1.71,1.71,0,0,1-.65-.12,1.39,1.39,0,0,1-.51-.34,1.82,1.82,0,0,1-.34-.55,1.9,1.9,0,0,1-.12-.7,2.09,2.09,0,0,1,.12-.72,1.66,1.66,0,0,1,.34-.54,1.3,1.3,0,0,1,.51-.35,1.54,1.54,0,0,1,.65-.13,1.57,1.57,0,0,1,.65.13,1.41,1.41,0,0,1,.52.35,1.66,1.66,0,0,1,.34.54A2.09,2.09,0,0,1,30.61,28Zm2.24-1.47a.53.53,0,0,1,.16-.13.38.38,0,0,1,.26-.07h.95L29.06,33a.58.58,0,0,1-.17.14.52.52,0,0,1-.23,0h-1ZM29.6,28a1.75,1.75,0,0,0-.05-.43.62.62,0,0,0-.13-.27.48.48,0,0,0-.2-.15.49.49,0,0,0-.24-.05.47.47,0,0,0-.24.05.4.4,0,0,0-.19.15.76.76,0,0,0-.13.27,1.8,1.8,0,0,0,0,.43,1.66,1.66,0,0,0,0,.42.85.85,0,0,0,.13.27.4.4,0,0,0,.19.15.61.61,0,0,0,.24,0,.64.64,0,0,0,.24,0,.48.48,0,0,0,.2-.15.68.68,0,0,0,.13-.27A1.61,1.61,0,0,0,29.6,28Zm4.94,3.62a1.75,1.75,0,0,1-.13.7,1.7,1.7,0,0,1-.36.54,1.66,1.66,0,0,1-1.78.35,1.54,1.54,0,0,1-.52-.35,1.63,1.63,0,0,1-.33-.54,1.75,1.75,0,0,1-.13-.7,1.81,1.81,0,0,1,.13-.72,1.58,1.58,0,0,1,.33-.55,1.54,1.54,0,0,1,.52-.35,1.66,1.66,0,0,1,.64-.12,1.71,1.71,0,0,1,.65.12,1.37,1.37,0,0,1,.52.35,1.46,1.46,0,0,1,.34.55A2,2,0,0,1,34.54,31.61Zm-1,0a1.34,1.34,0,0,0-.05-.43.66.66,0,0,0-.13-.28.45.45,0,0,0-.19-.15.7.7,0,0,0-.25-.05.69.69,0,0,0-.24.05.45.45,0,0,0-.19.15.81.81,0,0,0-.12.28,1.69,1.69,0,0,0,0,.43,1.61,1.61,0,0,0,0,.42.85.85,0,0,0,.12.27.43.43,0,0,0,.19.14.67.67,0,0,0,.24,0,.69.69,0,0,0,.25,0,.43.43,0,0,0,.19-.14.68.68,0,0,0,.13-.27A1.27,1.27,0,0,0,33.53,31.61Z"/>
        <path class="cls-13" d="M28.93,15.32a1.91,1.91,0,0,1,.64.11,1.48,1.48,0,0,1,.5.3,1.43,1.43,0,0,1,.33.47,1.92,1.92,0,0,1,0,1.28,1.37,1.37,0,0,1-.33.48,1.51,1.51,0,0,1-.5.31,1.91,1.91,0,0,1-.64.11,2,2,0,0,1-.66-.11,1.51,1.51,0,0,1-.5-.31,1.37,1.37,0,0,1-.33-.48,1.77,1.77,0,0,1,0-1.28,1.43,1.43,0,0,1,.33-.47,1.48,1.48,0,0,1,.5-.3A2,2,0,0,1,28.93,15.32Zm0,2.3a.49.49,0,0,0,.42-.18,1,1,0,0,0,.13-.59,1,1,0,0,0-.13-.59.47.47,0,0,0-.42-.18.51.51,0,0,0-.45.18,1,1,0,0,0-.13.59,1,1,0,0,0,.13.59A.54.54,0,0,0,28.93,17.62Z"/>
      </g>
    </g>
  </g>
</svg>
